# xmcd
# 
# Track frame offsets:
#     150
#     11506
#     22189
#     32545
#     46724
#     56560
#     66793
#     80306
#     92570
#     103743
#     118243
#     130439
#     143049
#     155977
#     166741
#     182506
#     196320
# 
# Disc length: 2779
# 
# Revision: 0
# Processed by: cddbd v1.5.2PL0 Copyright (c) Steve Scherf et al.
# Submitted via: BonkEnc v1.0.15
# 
DISCID=e00ad911
DTITLE=John Lee Hooker - Only !
DYEAR=2010
DGENRE=Blues
TTITLE0=Boom Boom
TTITLE1=Maudie
TTITLE2=She's Mine
TTITLE3=Boogie Chillen
TTITLE4=Dimples
TTITLE5=Big Legs, Tight Skirt
TTITLE6=Crawling King Snake
TTITLE7=High Priced Woman
TTITLE8=This Is Hip
TTITLE9=Sugar Mama
TTITLE10=Walkin' The Boogie
TTITLE11=Hobo Blues
TTITLE12=I'm Going Upstairs
TTITLE13=No Shoes
TTITLE14=It Serves Me Right To Suffer
TTITLE15=Louise
TTITLE16=I'm In The Mood
EXTD=
EXTT0=
EXTT1=
EXTT2=
EXTT3=
EXTT4=
EXTT5=
EXTT6=
EXTT7=
EXTT8=
EXTT9=
EXTT10=
EXTT11=
EXTT12=
EXTT13=
EXTT14=
EXTT15=
EXTT16=
PLAYORDER=
